<?xml version="1.0" encoding="UTF-8" standalone="no"?>
<svg
   xmlns:dc="http://purl.org/dc/elements/1.1/"
   xmlns:cc="http://creativecommons.org/ns#"
   xmlns:rdf="http://www.w3.org/1999/02/22-rdf-syntax-ns#"
   xmlns:svg="http://www.w3.org/2000/svg"
   xmlns="http://www.w3.org/2000/svg"
   id="SVGRoot"
   version="1.1"
   viewBox="0 0 256 256"
   height="256px"
   width="256px">
  <defs
     id="defs3713" />
  <metadata
     id="metadata3716">
    <rdf:RDF>
      <cc:Work
         rdf:about="">
        <dc:format>image/svg+xml</dc:format>
        <dc:type
           rdf:resource="http://purl.org/dc/dcmitype/StillImage" />
        <dc:title></dc:title>
      </cc:Work>
    </rdf:RDF>
  </metadata>
  <g
     id="layer1">
    <path
       d="M 126.39714,209.28801 27.449865,139.39497 63.345706,23.692384 184.47783,22.077291 223.44576,136.7817 Z"
       id="path3749"
       style="fill:#ff0000" />
    <path
       d="M 111.7424,77.853311 112.7151,42.62541 146.51941,32.664488 166.43892,61.7362 144.94554,89.664429 Z"
       id="path3753"
       style="fill:#000000" />
    <path
       id="path3755"
       d="m 111.7424,77.853311 c 0.45796,85.638639 0.45796,85.638639 0.45796,85.638639 L 100.75134,78.31127 112.7151,42.62541 163.49195,164.40787 111.7424,77.853311"
       style="fill:none;stroke:#000000;stroke-width:1px;stroke-linecap:butt;stroke-linejoin:miter;stroke-opacity:1" />
    <path
       id="path3757"
       d="m 106.30561,114.58663 -4.85851,-36.219814 5.43135,-16.102191 5.43135,-16.102192 -0.25379,13.738819 c -0.13958,7.556351 -0.43734,14.963409 -0.6617,16.46013 -0.23144,1.544064 -0.28123,18.235257 -0.11509,38.583188 0.16106,19.72403 0.20104,35.86187 0.0889,35.86187 -0.11218,0 -2.3903,-16.29892 -5.06247,-36.21981 z"
       style="fill:#000000;stroke-width:0.45796064" />
    <path
       id="path3759"
       d="M 135.30971,115.96685 C 122.93656,95.281611 113.12845,78.478352 113.51392,78.62627 c 0.38547,0.147918 3.93648,1.417055 7.89114,2.820305 3.95466,1.403249 7.43768,2.796871 7.74004,3.096937 0.62049,0.61578 29.08158,68.612508 28.82587,68.868218 -0.0905,0.0906 -10.28811,-16.75965 -22.66126,-37.44488 z"
       style="fill:#000000;stroke-width:0.45796064" />
    <text
       id="text3763"
       y="246.84077"
       x="5.4955268"
       style="font-style:normal;font-weight:normal;font-size:40px;line-height:1.25;font-family:sans-serif;letter-spacing:0px;word-spacing:0px;fill:#ff0000;fill-opacity:1;stroke:none"
       xml:space="preserve"><tspan
         style="font-style:normal;font-variant:normal;font-weight:normal;font-stretch:normal;font-size:37.33333206px;font-family:monospace;-inkscape-font-specification:monospace"
         y="246.84077"
         x="5.4955268"
         id="tspan3761">ReignRunner</tspan></text>
  </g>
</svg>
